<svg width="13" height="14" viewBox="0 0 13 14" fill="none" xmlns="http://www.w3.org/2000/svg">
<g clip-path="url(#clip0)">
<path d="M12.598 1.80901L11.0939 0.388839C10.833 0.142432 10.4789 0.00379083 10.1094 0.00341417L5.11495 -0.00165373C4.34569 -0.0024343 3.7215 0.58455 3.72075 1.30943L3.71941 2.62193L1.39798 2.61958C0.628722 2.61879 0.00452736 3.20578 0.00378611 3.93066L-0.00516141 12.6807C-0.00590266 13.4055 0.61709 13.9938 1.38635 13.9946L7.88635 14.0012C8.65561 14.0019 9.27981 13.415 9.28055 12.6901L9.28189 11.3776L11.6033 11.3799C12.3726 11.3807 12.9968 10.7937 12.9975 10.0688L13.005 2.7375C13.0054 2.38941 12.859 2.05542 12.598 1.80901ZM7.71358 12.6885L1.5618 12.6822C1.51563 12.6822 1.47136 12.6649 1.43874 12.6341C1.40612 12.6033 1.38782 12.5615 1.38786 12.518L1.39647 4.09614C1.39652 4.05262 1.41491 4.01091 1.44759 3.98018C1.48027 3.94944 1.52457 3.9322 1.57075 3.93225L3.71807 3.93443L3.71181 10.0594C3.71107 10.7843 4.33406 11.3726 5.10332 11.3733L7.88903 11.3762L7.88786 12.5246C7.88782 12.5681 7.86943 12.6098 7.83675 12.6406C7.80406 12.6713 7.75976 12.6885 7.71358 12.6885ZM11.4306 10.0673L5.27877 10.061C5.23259 10.061 5.18833 10.0436 5.15571 10.0128C5.12309 9.98204 5.10479 9.94029 5.10483 9.89678L5.11344 1.47491C5.11349 1.4314 5.13187 1.38968 5.16456 1.35895C5.19724 1.32822 5.24154 1.31098 5.28772 1.31102L8.36361 1.31414L8.36115 3.72039C8.36078 4.08283 8.67227 4.37696 9.05691 4.37735L11.6105 4.37994L11.6048 9.90337C11.6048 9.94688 11.5864 9.9886 11.5537 10.0193C11.521 10.0501 11.4767 10.0673 11.4306 10.0673ZM11.6118 3.06744L9.75468 3.06556L9.75647 1.31556L10.036 1.31584C10.0821 1.31589 10.1264 1.33321 10.159 1.36401L11.5612 2.68799C11.5774 2.70325 11.5902 2.72135 11.5989 2.74126C11.6076 2.76118 11.6121 2.78252 11.6121 2.80406L11.6118 3.06744Z" fill="white"/>
</g>
<defs>
<clipPath id="clip0">
<rect width="13" height="14" fill="white"/>
</clipPath>
</defs>
</svg>
